<svg xmlns="http://www.w3.org/2000/svg" xmlns:xlink="http://www.w3.org/1999/xlink" width="40" zoomAndPan="magnify" viewBox="0 0 30 149.999998" height="200" preserveAspectRatio="xMidYMid meet" version="1.0"><defs><clipPath id="e6ea59f35d"><path d="M 9.5 146 L 11.75 146 L 11.75 149 L 9.5 149 Z M 9.5 146 " clip-rule="nonzero"/></clipPath><clipPath id="f5aa85528e"><path d="M 19 1 L 20.875 1 L 20.875 144 L 19 144 Z M 19 1 " clip-rule="nonzero"/></clipPath><clipPath id="b195ca3ae8"><path d="M 18.625 146 L 20.875 146 L 20.875 149 L 18.625 149 Z M 18.625 146 " clip-rule="nonzero"/></clipPath></defs><path fill="#fdf9f0" d="M 10 1.707031 L 10.875 1.707031 L 10.875 144 L 10 144 Z M 10 1.707031 " fill-opacity="1" fill-rule="nonzero"/><g clip-path="url(#e6ea59f35d)"><path fill="#fdf9f0" d="M 11.378906 147.539062 C 11.378906 147.746094 11.285156 147.921875 11.101562 148.070312 C 10.917969 148.21875 10.699219 148.289062 10.4375 148.289062 C 10.179688 148.289062 9.957031 148.21875 9.773438 148.070312 C 9.589844 147.921875 9.5 147.746094 9.5 147.539062 C 9.5 147.332031 9.589844 147.152344 9.773438 147.007812 C 9.957031 146.859375 10.179688 146.785156 10.4375 146.785156 C 10.699219 146.785156 10.917969 146.859375 11.101562 147.007812 C 11.285156 147.152344 11.378906 147.332031 11.378906 147.539062 Z M 11.378906 147.539062 " fill-opacity="1" fill-rule="nonzero"/></g><g clip-path="url(#f5aa85528e)"><path fill="#fdf9f0" d="M 19.125 1.707031 L 20.003906 1.707031 L 20.003906 144 L 19.125 144 Z M 19.125 1.707031 " fill-opacity="1" fill-rule="nonzero"/></g><g clip-path="url(#b195ca3ae8)"><path fill="#fdf9f0" d="M 20.503906 147.539062 C 20.503906 147.746094 20.414062 147.921875 20.230469 148.070312 C 20.046875 148.21875 19.824219 148.289062 19.566406 148.289062 C 19.304688 148.289062 19.082031 148.21875 18.902344 148.070312 C 18.71875 147.921875 18.625 147.746094 18.625 147.539062 C 18.625 147.332031 18.71875 147.152344 18.902344 147.007812 C 19.082031 146.859375 19.304688 146.785156 19.566406 146.785156 C 19.824219 146.785156 20.046875 146.859375 20.230469 147.007812 C 20.414062 147.152344 20.503906 147.332031 20.503906 147.539062 Z M 20.503906 147.539062 " fill-opacity="1" fill-rule="nonzero"/></g></svg>